#!OML:ASF F:\VICON\USERDATA\INSTALL\rory3\rory3.ASF
:FULLY-SPECIFIED
:DEGREES
96
root 0.183697 17.1238 13.2819 3.5014 0.384873 -4.90147
lowerback 15.8581 1.01232 4.48533
upperback -0.0942204 2.44565 2.95615
thorax -8.9751 1.04573 0.0792604
lowerneck -19.7029 -4.24448 -2.05047
upperneck 12.4493 -5.52918 2.07592
head 7.14049 -2.55293 0.360928
rclavicle 6.4605e-015 3.57812e-014
rhumerus -31.9558 12.4679 -95.1427
rradius 105.061
rwrist -21.4427
rhand -18.9332 37.6977
rfingers 7.12502
rthumb 7.36963 7.84603
lclavicle 6.4605e-015 3.57812e-014
lhumerus -54.5105 -13.6475 99.5856
lradius 104.807
lwrist 32.8502
lhand -25.239 3.16763
lfingers 7.12502
lthumb 1.28077 33.1435
rfemur -11.8398 3.33166 35.7397
rtibia 49.985
rfoot -23.8625 -18.3925
rtoes -14.2439
lfemur -37.5144 2.96594 -13.7027
ltibia 93.7965
lfoot 0.562886 -6.17858
ltoes 3.53156
97
root 0.207446 17.2276 13.749 3.7851 0.502337 -4.65715
lowerback 15.6144 1.27692 4.72408
upperback -0.258613 2.80699 2.67823
thorax -8.98056 1.19958 -0.431872
lowerneck -19.5893 -4.38985 -2.13382
upperneck 12.6622 -5.73456 2.20855
head 7.20266 -2.64176 0.392496
rclavicle 1.5207e-014 -1.98785e-014
rhumerus -31.2376 12.2964 -94.9201
rradius 105.676
rwrist -21.1829
rhand -19.3319 38.3026
rfingers 7.12502
rthumb 6.9848 8.43781
lclavicle 1.5207e-014 -1.98785e-014
lhumerus -55.5766 -13.9182 99.7164
lradius 105.058
lwrist 33.2045
lhand -24.247 2.25851
lfingers 7.12502
lthumb 2.23878 32.2265
rfemur -9.91195 3.25879 35.3131
rtibia 48.7811
rfoot -21.9791 -17.4417
rtoes -17.4114
lfemur -38.8454 2.56738 -14.4005
ltibia 91.5786
lfoot -0.983142 -5.66959
ltoes -0.748626
98
root 0.234401 17.325 14.2222 3.97727 1.12056 -4.34289
lowerback 15.1436 1.3621 5.04421
upperback -0.203419 2.91604 2.40534
thorax -8.61791 1.2412 -0.914526
lowerneck -19.8064 -4.56229 -2.23439
upperneck 12.7497 -5.96427 2.35708
head 7.28035 -2.739 0.423757
rclavicle 7.7526e-015 3.97569e-015
rhumerus -30.3434 11.9891 -94.5624
rradius 106.21
rwrist -21.1419
rhand -19.402 38.8656
rfingers 7.12502
rthumb 6.91713 8.99857
lclavicle 7.7526e-015 3.97569e-015
lhumerus -56.1719 -14.0301 99.7327
lradius 105.193
lwrist 33.1025
lhand -23.7516 2.03208
lfingers 7.12502
lthumb 2.71721 31.9945
rfemur -8.02728 2.81978 34.7809
rtibia 47.6355
rfoot -20.108 -16.2807
rtoes -19.1924
lfemur -40.147 1.70884 -15.169
ltibia 89.0657
lfoot -2.23694 -5.49574
ltoes -8.58445
99
root 0.24999 17.4417 14.6983 4.12706 1.93864 -4.38227
lowerback 14.7974 1.33699 5.60955
upperback -0.283076 2.94617 2.24016
thorax -8.47088 1.23088 -1.40456
lowerneck -19.4568 -4.71129 -2.11259
upperneck 12.4806 -6.18393 2.27332
head 7.13193 -2.8527 0.361163
rclavicle -1.60022e-014 -4.77083e-015
rhumerus -29.6626 11.806 -94.4148
rradius 106.557
rwrist -21.1767
rhand -19.4649 39.2269
rfingers 7.12502
rthumb 6.85641 9.35791
lclavicle -1.60022e-014 -4.77083e-015
lhumerus -57.0831 -14.0032 99.6946
lradius 105.443
lwrist 32.8503
lhand -24.4513 3.92355
lfingers 7.12502
lthumb 2.04151 33.8935
rfemur -6.16533 2.46289 34.722
rtibia 46.3622
rfoot -18.0534 -14.9599
rtoes -19.1567
lfemur -41.6055 0.884187 -15.443
ltibia 86.1185
lfoot -1.4469 -6.17171
ltoes -11.1186
100
root 0.252886 17.5486 15.1669 4.28406 2.09326 -4.31735
lowerback 14.6805 1.54621 5.72599
upperback -0.560914 3.23299 2.03354
thorax -8.67146 1.34864 -1.75164
lowerneck -18.8964 -4.78741 -1.97648
upperneck 12.4367 -6.32174 2.20519
head 7.02097 -2.92515 0.313951
rclavicle 1.23246e-014 -1.31198e-014
rhumerus -29.6929 11.3855 -94.4813
rradius 107.097
rwrist -20.9774
rhand -19.1828 39.2002
rfingers 7.12502
rthumb 7.12871 9.34031
lclavicle 1.23246e-014 -1.31198e-014
lhumerus -58.3443 -13.8467 99.5094
lradius 105.66
lwrist 32.6948
lhand -26.144 9.16725
lfingers 7.12502
lthumb 0.406694 39.1466
rfemur -4.51268 2.8271 34.5935
rtibia 45.1686
rfoot -15.5816 -13.7315
rtoes -19.4353
lfemur -42.2582 0.773093 -15.7139
ltibia 83.1268
lfoot -2.31776 -6.40038
ltoes -9.95964
101
root 0.254561 17.6726 15.6473 4.19825 2.37806 -4.16056
lowerback 14.7033 1.69987 5.69562
upperback -0.678001 3.42826 1.8987
thorax -8.79201 1.43483 -1.92351
lowerneck -18.7292 -4.81703 -2.15641
upperneck 12.6519 -6.3576 2.39676
head 7.0773 -2.93267 0.401026
rclavicle -1.93815e-014 2.50469e-014
rhumerus -29.6044 11.0183 -94.3865
rradius 107.387
rwrist -20.6566
rhand -19.1326 39.0754
rfingers 7.12502
rthumb 7.17717 9.21712
lclavicle -1.93815e-014 2.50469e-014
lhumerus -59.2269 -13.5977 99.3537
lradius 105.67
lwrist 32.7981
lhand -22.7753 1.69041
lfingers 7.12502
lthumb 3.66008 31.6387
rfemur -2.64632 2.98382 34.3768
rtibia 43.884
rfoot -12.369 -12.4608
rtoes -18.9717
lfemur -42.6179 0.385489 -16.08
ltibia 79.6193
lfoot -2.589 -7.02321
ltoes -9.79278
102
root 0.269199 17.7698 16.1253 3.95136 3.39256 -3.8532
lowerback 14.7276 1.56208 5.81678
upperback -0.69302 3.25543 1.74105
thorax -8.8183 1.34112 -2.12534
lowerneck -18.6414 -4.79815 -2.21781
upperneck 12.8559 -6.32675 2.41055
head 7.13137 -2.91845 0.418187
rclavicle -8.74653e-015 2.0276e-014
rhumerus -29.0995 10.883 -94.0916
rradius 107.289
rwrist -20.4026
rhand -19.0974 38.6825
rfingers 7.12502
rthumb 7.21114 8.82533
lclavicle -8.74653e-015 2.0276e-014
lhumerus -60.0844 -13.2659 99.3159
lradius 105.551
lwrist 32.5217
lhand -36.9183 40.9968
lfingers 7.12502
lthumb -9.9958 70.7394
rfemur -0.751099 2.33503 33.981
rtibia 42.6051
rfoot -8.45818 -10.8643
rtoes -16.6127
lfemur -42.5528 -0.727083 -16.5878
ltibia 76.0739
lfoot -3.3585 -7.56025
ltoes -11.3894
